# xmcd CD database file
#
# Track frame offsets:
#	150
#	34320
#	59539
#	84477
#	96510
#	114770
#	140830
#	164197
#
# Disc length: 2420 seconds
#
# Revision: 0
# Processed by: cddbd v1.5.1PL0 Copyright (c) Steve Scherf et al.
# Submitted via: CDex 1.51
#
DISCID=74097208
DTITLE=Bluesbastards - Blues for Muriel
DYEAR=2004
DGENRE=Blues
TTITLE0=Mr. Pianoman
TTITLE1=Hifi appartment
TTITLE2=Who's been talking
TTITLE3=This time I.m gone
TTITLE4=Too late
TTITLE5=If you think...
TTITLE6=Blues for Muriel
TTITLE7=Next time you see me
EXTD=YEAR: 2004
EXTT0=
EXTT1=
EXTT2=
EXTT3=
EXTT4=
EXTT5=
EXTT6=
EXTT7=
PLAYORDER=
